<svg id="Laag_1" data-name="Laag 1" xmlns="http://www.w3.org/2000/svg" xmlns:xlink="http://www.w3.org/1999/xlink" viewBox="0 0 865.38 152.51"><defs><style>.cls-1{fill:none;}.cls-2{clip-path:url(#clip-path);}</style><clipPath id="clip-path" transform="translate(-20.28 -26.51)"><rect class="cls-1" x="20.28" y="26.51" width="868.38" height="152.51"/></clipPath></defs><title>LINDA.nl LOGO</title><polygon points="0 0 0 151.51 86.6 151.51 86.6 118.15 39.38 118.15 39.38 0 0 0"/><rect x="91.42" width="39.38" height="151.5"/><polygon points="248.34 0 248.34 92.63 247.94 92.63 175.81 0 136.43 0 136.43 151.51 175.81 151.51 175.81 58.68 176.21 58.68 248.34 151.51 287.73 151.51 287.73 0 248.34 0"/><g class="cls-2"><path d="M313.64,178h55.85c42,0,77-33.16,77-75.75s-34.76-75.75-77-75.75H313.64ZM353,59.87h9.24c25.32,0,43.2,15.27,43.2,42.4,0,29.53-20.09,42.39-43.6,42.39H353Z" transform="translate(-20.28 -26.51)"/></g><path d="M506.33,73.33h.4l16.07,48.23H490.05Zm-21.1-46.81L427,178h41.79L479.2,151.7h54.25L543.3,178h42L528.23,26.52Z" transform="translate(-20.28 -26.51)"/><g class="cls-2"><path d="M630.7,155.51A23.51,23.51,0,1,1,607.19,132a23.54,23.54,0,0,1,23.51,23.51" transform="translate(-20.28 -26.51)"/></g><path d="M730.39,26.51v94H730l-53-94h-40.8V179h37.38V84H674L727,179h40.8V26.51Zm44.42,0V179H885.67V144.85H814.54V26.51Z" transform="translate(-20.28 -26.51)"/></svg>